<?xml version="1.0" encoding="UTF-8"?>
<svg id="_图层_1" data-name="图层 1" xmlns="http://www.w3.org/2000/svg" viewBox="0 0 131.76 101.11">
  <defs>
    <style>
      .cls-1 {
        fill: #39b54a;
        stroke: #39b54a;
        stroke-linecap: round;
        stroke-miterlimit: 10;
      }

      .cls-2 {
        fill: #28397f;
      }

      .cls-3 {
        fill: #fbac18;
      }
    </style>
  </defs>
  <path class="cls-3" d="M24.83,1.99H1.5c-.81,0-1.5.69-1.5,1.5v13.43c0,.81.69,1.5,1.5,1.5h23.33c1.93,0,1.93-3,0-3H1.5l1.5,1.5V3.49l-1.5,1.5h23.33c1.93,0,1.93-3,0-3h0Z"/>
  <path class="cls-3" d="M53.71,1.99h-23.33c-.81,0-1.5.69-1.5,1.5v6.72c0,.81.69,1.5,1.5,1.5h23.33c1.93,0,1.93-3,0-3h-23.33l1.5,1.5V3.49l-1.5,1.5h23.33c1.93,0,1.93-3,0-3h0Z"/>
  <path class="cls-3" d="M30.38,18.42c6.81,0,13.63,0,20.44,0h2.89c.81,0,1.5-.69,1.5-1.5,0-2.24,0-4.48,0-6.72,0-.81-.69-1.5-1.5-1.5-6.81,0-13.63,0-20.44,0-.96,0-1.93,0-2.89,0-1.93,0-1.93,3,0,3,6.81,0,13.63,0,20.44,0h2.89c-.5-.5-1-1-1.5-1.5,0,2.24,0,4.48,0,6.72l1.5-1.5c-6.81,0-13.63,0-20.44,0h-2.89c-1.93,0-1.93,3,0,3h0Z"/>
  <circle class="cls-1" cx="63.06" cy="3.49" r="2.99"/>
  <path class="cls-2" d="M55.21,99.64V21.77l-2.95.4c1.56,8.82,3.11,17.65,4.67,26.47,2.46,13.95,4.92,27.89,7.38,41.84.56,3.19,1.12,6.38,1.69,9.56.3,1.69,2.95,1.25,2.95-.4V21.77c0-1.93-3-1.93-3,0v77.87l2.95-.4c-1.56-8.82-3.11-17.65-4.67-26.47-2.46-13.95-4.92-27.89-7.38-41.84-.56-3.19-1.12-6.38-1.69-9.56-.3-1.69-2.95-1.25-2.95.4v77.87c0,1.93,3,1.93,3,0h0Z"/>
  <path class="cls-2" d="M73.28,23.27h11.69c1.93,0,1.93-3,0-3h-11.69c-1.93,0-1.93,3,0,3h0Z"/>
  <path class="cls-2" d="M74.78,38.84c0-4.97,0-9.95,0-14.92v-2.15c0-1.93-3-1.93-3,0,0,4.97,0,9.95,0,14.92v2.15c0,1.93,3,1.93,3,0h0Z"/>
  <path class="cls-2" d="M73.28,40.34h19.7c1.93,0,1.93-3,0-3h-19.7c-1.93,0-1.93,3,0,3h0Z"/>
  <path class="cls-2" d="M73.28,31.8h15.7c1.93,0,1.93-3,0-3h-15.7c-1.93,0-1.93,3,0,3h0Z"/>
  <path class="cls-2" d="M73.28,18.42h17.78l-1.45-1.1c2.3,5.64,4.6,11.27,6.9,16.91,3.66,8.97,7.33,17.95,10.99,26.92l2.51,6.15c.34.83.96,1.17,1.85,1.05,6.25-.89,12.5-1.79,18.75-2.68.74-.11,1.32-1.16,1.05-1.85-2.14-5.34-4.29-10.67-6.43-16.01l-10.21-25.4c-.79-1.96-1.58-3.93-2.37-5.89l-1.45,1.9h19.01c.87,0,1.83-.98,1.45-1.9-1.87-4.48-3.74-8.95-5.61-13.43-.26-.62-.73-1.1-1.45-1.1h-51.33c-1.93,0-1.93,3,0,3h51.33l-1.45-1.1c1.87,4.48,3.74,8.95,5.61,13.43l1.45-1.9h-19.01c-.88,0-1.82.97-1.45,1.9,2.14,5.34,4.29,10.67,6.43,16.01l10.21,25.4c.79,1.96,1.58,3.93,2.37,5.89l1.05-1.85c-6.25.89-12.5,1.79-18.75,2.68l1.85,1.05c-2.3-5.64-4.6-11.27-6.9-16.91l-10.99-26.92c-.84-2.05-1.67-4.1-2.51-6.15-.25-.62-.73-1.1-1.45-1.1h-17.78c-1.93,0-1.93,3,0,3h0Z"/>
  <path class="cls-2" d="M74.78,16.92c0-3.91,0-7.83,0-11.74v-1.69c0-1.93-3-1.93-3,0,0,3.91,0,7.83,0,11.74v1.69c0,1.93,3,1.93,3,0h0Z"/>
</svg>